<svg xmlns="http://www.w3.org/2000/svg" width="undefined" height="undefined" viewBox="0 0 24 24"><path fill="currentColor" d="M15.257 2H8.753A6.765 6.765 0 0 0 2 8.75v6.5a6.727 6.727 0 0 0 3.122 5.68a5.9 5.9 0 0 0 1.06.56a6.646 6.646 0 0 0 2.561.51h6.504c.9 0 1.791-.18 2.62-.53a6.503 6.503 0 0 0 1.131-.62A6.71 6.71 0 0 0 22 15.26v-6.5A6.758 6.758 0 0 0 15.257 2m-3.252 4.58a3.143 3.143 0 0 1 3.081 3.753a3.14 3.14 0 0 1-4.283 2.288a3.142 3.142 0 0 1-1.94-2.901a3.15 3.15 0 0 1 3.142-3.14m5.002 13.63a5.006 5.006 0 0 1-1.7.29H8.803a5.264 5.264 0 0 1-3.391-1.25a6.53 6.53 0 0 1 2.1-2.56a7.176 7.176 0 0 1 9.085 0a6.871 6.871 0 0 1 2.151 2.52c-.523.45-.828.698-1.486.907z"/></svg>